<?xml version="1.0" encoding="UTF-8" standalone="no"?>
<!-- Created with Inkscape (http://www.inkscape.org/) -->

<svg
   version="1.1"
   id="svg49297"
   width="1600"
   height="1600"
   viewBox="0 0 1600 1600"
   sodipodi:docname="urban-city-landscape-vector-pdv.svg"
   inkscape:version="1.2 (dc2aedaf03, 2022-05-15)"
   xmlns:inkscape="http://www.inkscape.org/namespaces/inkscape"
   xmlns:sodipodi="http://sodipodi.sourceforge.net/DTD/sodipodi-0.dtd"
   xmlns="http://www.w3.org/2000/svg"
   xmlns:svg="http://www.w3.org/2000/svg">
  <defs
     id="defs49301">
    <clipPath
       clipPathUnits="userSpaceOnUse"
       id="clipPath49313">
      <path
         d="M 0,1200 H 1200 V 0 H 0 Z"
         id="path49311" />
    </clipPath>
  </defs>
  <sodipodi:namedview
     id="namedview49299"
     pagecolor="#ffffff"
     bordercolor="#000000"
     borderopacity="0.25"
     inkscape:showpageshadow="2"
     inkscape:pageopacity="0.0"
     inkscape:pagecheckerboard="0"
     inkscape:deskcolor="#d1d1d1"
     showgrid="false"
     inkscape:zoom="0.523125"
     inkscape:cx="800"
     inkscape:cy="800.95579"
     inkscape:window-width="1920"
     inkscape:window-height="1017"
     inkscape:window-x="-8"
     inkscape:window-y="-8"
     inkscape:window-maximized="1"
     inkscape:current-layer="g49305">
    <inkscape:page
       x="0"
       y="0"
       id="page49303"
       width="1600"
       height="1600" />
  </sodipodi:namedview>
  <g
     id="g49305"
     inkscape:groupmode="layer"
     inkscape:label="Page 1"
     transform="matrix(1.3333333,0,0,-1.3333333,0,1600)">
    <g
       id="g49307">
      <g
         id="g49309"
         clip-path="url(#clipPath49313)">
        <g
           id="g49315"
           transform="translate(594.9141,977.6689)">
          <path
             d="m 0,0 c 297.261,0 538.238,-240.975 538.238,-538.235 0,-44.223 -5.371,-87.182 -15.428,-128.303 H -522.81 c -10.057,41.121 -15.432,84.08 -15.432,128.303 C -538.242,-240.975 -297.261,0 0,0"
             style="fill:#fffad6;fill-opacity:1;fill-rule:evenodd;stroke:none"
             id="path49317" />
        </g>
        <g
           id="g49319"
           transform="translate(-4.5234,277.3799)">
          <path
             d="M 0,0 H 1198.875 V 33.755 L 0,33.754 Z"
             style="fill:#3a5e1a;fill-opacity:1;fill-rule:evenodd;stroke:none"
             id="path49321" />
        </g>
        <g
           id="g49323"
           transform="translate(716.1992,311.1338)">
          <path
             d="M 0,0 183.483,0.001 V 428.176 H 0 Z"
             style="fill:#3d7011;fill-opacity:1;fill-rule:evenodd;stroke:none"
             id="path49325" />
        </g>
        <g
           id="g49327"
           transform="translate(579.3623,311.1338)">
          <path
             d="M 0,0 194.369,0.001 V 558.789 H 0 Z"
             style="fill:#5f992c;fill-opacity:1;fill-rule:evenodd;stroke:none"
             id="path49329" />
        </g>
        <path
           d="m 848.37,311.131 h 189.703 v 393.97 H 848.37 Z"
           style="fill:#5f992c;fill-opacity:1;fill-rule:evenodd;stroke:none"
           id="path49331" />
        <path
           d="M 367.894,311.131 H 498.507 V 967.885 H 367.894 Z"
           style="fill:#5f992c;fill-opacity:1;fill-rule:evenodd;stroke:none"
           id="path49333" />
        <path
           d="M 151.751,311.134 H 279.257 V 594.701 H 151.751 Z"
           style="fill:#5f992c;fill-opacity:1;fill-rule:evenodd;stroke:none"
           id="path49335" />
        <path
           d="M 468.963,311.134 H 638.452 V 818.615 H 468.963 Z"
           style="fill:#8bc45a;fill-opacity:1;fill-rule:evenodd;stroke:none"
           id="path49337" />
        <path
           d="M 232.61,311.134 H 398.99 V 712.875 H 232.61 Z"
           style="fill:#8bc45a;fill-opacity:1;fill-rule:evenodd;stroke:none"
           id="path49339" />
        <path
           d="m 520.265,787.148 h 31.55 v -43.117 h -31.55 z m 70.986,15.774 h 17.88 v -36.808 h -17.88 z m -17.876,-84.659 h 36.28 v -51 h -36.28 z m -52.583,-16.822 h 26.291 V 670.939 H 520.792 Z M 485.563,682.51 h 24.713 v -46.273 h -24.713 z m 48.375,-39.437 h 22.087 V 596.8 h -22.087 z m 36.807,-10.516 h 34.706 v -33.654 h -34.706 z m -72.238,-38.386 h 18.606 v -33.654 h -18.606 z m -10.839,-84.135 h 24.186 v -42.59 h -24.186 z m 41.539,48.905 h 26.818 v -56.266 h -26.818 z m 50.158,-21.032 h 25.031 v -48.906 h -25.031 z m 40.81,-66.255 h -24.713 v -50.48 h 24.713 z m -59.943,3.68 h -24.189 v -55.215 h 24.189 z m -48.375,-41.542 h -22.614 v -46.797 h 22.614 z m 16.299,-46.27 h 24.185 V 339.143 H 528.156 Z M 313.134,677.231 h 16.822 v -28.393 h -16.822 z m -45.749,28.393 h 25.764 v -36.28 h -25.764 z m -20.506,-38.382 h 17.35 v -35.757 h -17.35 z m -0.527,-61.524 h 17.877 v -33.651 h -17.877 z m 31.022,29.974 h 24.189 v -36.808 h -24.189 z m 46.8,-8.414 h 28.92 v -39.964 h -28.92 z m 23.138,-85.707 h 32.597 v -51.534 h -32.597 z m -56.792,-17.88 h 26.291 V 492.142 H 290.52 Z m -41.54,-14.723 h 24.717 V 454.811 H 248.98 Z m 81.503,-56.793 h 32.603 v -51 h -32.603 z m -57.84,-21.557 h 20.506 V 400.12 h -20.506 z m 22.086,-67.306 h 30.495 v -38.383 h -30.495 z m 47.849,14.201 h 31.025 v -41.542 h -31.025 z m 13.146,320.224 h 22.61 v -47.324 h -22.61 z m 127.21,99.927 h 18.404 v -43.117 h -18.404 z"
           style="fill:#fff07f;fill-opacity:1;fill-rule:evenodd;stroke:none"
           id="path49341" />
        <g
           id="g49343"
           transform="translate(638.4521,818.6113)">
          <path
             d="M 0,0 27.332,-29.465 V -507.48 l -27.332,0 z"
             style="fill:#548c23;fill-opacity:1;fill-rule:evenodd;stroke:none"
             id="path49345" />
        </g>
        <path
           d="M 773.731,311.135 H 802.38 V 739.31 h -28.649 z"
           style="fill:#34630b;fill-opacity:1;fill-rule:evenodd;stroke:none"
           id="path49347" />
        <g
           id="g49349"
           transform="translate(398.9902,712.875)">
          <path
             d="M 0,0 27.332,-29.465 V -401.744 H 0 Z"
             style="fill:#548c23;fill-opacity:1;fill-rule:evenodd;stroke:none"
             id="path49351" />
        </g>
        <path
           d="m 687.234,399.873 h 28.965 v -51.534 h -28.965 z m -5.258,92.543 h 24.189 v -63.099 h -24.189 z m 46.273,10.517 h 22.084 V 438.784 H 728.249 Z M 705.11,663.832 h 19.455 V 631.235 H 705.11 Z m -28.56,-73.307 h 48.543 V 518.707 H 676.55 Z m 63.266,14.419 h 21.033 v -63.099 h -21.033 z m -65.204,123.569 h 10.517 v -26.291 h -10.517 z m 34.179,21.033 h 28.92 v -45.75 h -28.92 z m 31.549,95.698 h 18.932 V 784.248 H 740.34 Z m -50.477,-7.89 h 33.124 v -53.106 h -33.124 z m -36.807,18.404 h 22.084 v -46.27 h -22.084 z m 85.71,-442.215 h 18.931 v -39.964 h -18.931 z"
           style="fill:#ffdd30;fill-opacity:1;fill-rule:evenodd;stroke:none"
           id="path49353" />
        <path
           d="m 806.578,615.454 h 21.033 v -39.437 h -21.033 z m -6.306,-78.874 h 19.979 v -49.953 h -19.979 z m 13.669,-99.906 h 13.673 v -26.291 h -13.673 z m -18.941,-51 h 32.614 V 329.936 H 795 Z m 3.69,340.203 h 24.19 v -68.881 h -24.19 z"
           style="fill:#ffbb00;fill-opacity:1;fill-rule:evenodd;stroke:none"
           id="path49355" />
        <path
           d="m 904.934,674.342 h 31.025 v -33.124 h -31.025 z m 72.037,11.044 h 28.92 v -56.263 h -28.92 z m -58.892,-77.823 h 45.746 v -45.219 h -45.746 z m -43.117,-5.258 h 24.721 v -60.47 H 874.962 Z M 988.541,579.17 h 31.022 v -55.211 h -31.022 z m -50.48,-76.772 h 27.342 v -31.025 h -27.342 z m 53.11,-22.61 h 22.083 v -71.514 h -22.083 z m -124.623,28.396 h 24.717 v -39.439 h -24.717 z m 8.941,-90.968 h 36.281 v -64.152 h -36.281 z m 59.419,34.179 h 25.764 v -51.004 h -25.764 z m -63.626,237.674 h 18.404 v -44.695 h -18.404 z"
           style="fill:#ffdd30;fill-opacity:1;fill-rule:evenodd;stroke:none"
           id="path49357" />
        <path
           d="M 802.381,329.935 H 795 v 55.738 h 7.381 z m 0,156.692 h -2.108 v 49.953 h 2.108 z m 0,170.369 h -3.69 v 68.881 h 3.69 z"
           style="fill:#f5ac00;fill-opacity:1;fill-rule:evenodd;stroke:none"
           id="path49359" />
        <path
           d="m 396.464,939.879 h 15.775 v -62.048 h -15.775 z m 29.858,-501.637 h 22.724 v -45.219 h -22.724 z m -24.599,403.836 h 17.876 v -60.997 h -17.876 z m 32.6,-110.423 h 17.88 v -26.291 h -17.88 z m 1.051,-178.783 h 21.032 v -44.168 h -21.032 z m -6.046,115.944 h 24.124 v -32.6 h -24.124 z m 22.874,247.924 h 25.237 v -44.167 h -25.237 z"
           style="fill:#ffdd30;fill-opacity:1;fill-rule:evenodd;stroke:none"
           id="path49361" />
        <path
           d="m 203.498,544.981 h 19.458 V 507.65 h -19.458 z m -38.382,-47.324 h 27.865 v -41.538 h -27.865 z m 5.782,-72.56 h 29.971 v -27.869 h -29.971 z m 18.931,-50.481 h 33.654 V 345.169 H 189.829 Z M 166.69,577.585 h 21.561 V 536.047 H 166.69 Z"
           style="fill:#ffdd30;fill-opacity:1;fill-rule:evenodd;stroke:none"
           id="path49363" />
      </g>
    </g>
  </g>
</svg>
